<?xml version="1.0" encoding="utf-8"?>
<!-- Generator: Adobe Illustrator 23.0.2, SVG Export Plug-In . SVG Version: 6.00 Build 0)  -->
<svg version="1.1" id="Layer_1" xmlns="http://www.w3.org/2000/svg" xmlns:xlink="http://www.w3.org/1999/xlink" x="0px" y="0px"
	 viewBox="0 0 200 100" style="enable-background:new 0 0 200 100;" xml:space="preserve">
<g>
	<path d="M180.2,66.5h-2.4v-8.2h-9.5v5c0,7.4,4.5,10.7,11.4,10.7c6.9,0,11.7-4.8,11.7-12.7v-0.5c0-6.8-2.5-9.8-7.8-13.5
		c-4.9-3.4-6-4.4-6-7.1v-2.6c0-1.9,0.7-2.5,2-2.5h2.3v8.1h9.5v-5c0-7.4-4.5-10.7-11.3-10.7c-6.8,0-11.7,4.8-11.7,12.7v0.4
		c0,6.8,2.5,9.8,7.8,13.5c4.9,3.4,6,4.4,6,7.1v2.7C182.2,65.9,181.5,66.5,180.2,66.5 M155.5,66.5h-2.4v-8.2h-9.5v5
		c0,7.4,4.5,10.7,11.4,10.7c6.9,0,11.7-4.8,11.7-12.7v-0.5c0-6.8-2.5-9.8-7.8-13.5c-4.9-3.4-6-4.4-6-7.1v-2.6c0-1.9,0.7-2.5,2-2.5
		h2.3v8.1h9.5v-5c0-7.4-4.5-10.7-11.3-10.7c-6.8,0-11.7,4.8-11.7,12.7v0.4c0,6.8,2.5,9.8,7.8,13.5c4.9,3.4,6,4.4,6,7.1v2.7
		C157.6,65.9,156.8,66.5,155.5,66.5 M141.7,73.1V56.2H134v9.9h-4.3V52.9h8.6v-7.2h-8.6V35.4h4.3v6.9h7.7V28.4h-24.3v7.2h3.4v30.3
		h-3.4v7.2H141.7z M116.7,73.1v-7.2h-3v-8.2c0-5-1.7-7.4-7.2-7.7v-0.3c4.2-0.5,7.4-3,7.4-7.9v-3.5c0-6.9-3.6-9.8-11.7-9.8H87.5v7.2
		h3.4v30.3h-3.4v7.2H100V54.3h1.9c2.4,0,2.5,0.6,2.5,4.1v14.8H116.7z M104.5,44c0,2.6-0.2,3-2.4,3H100V35.6h2.2c2.1,0,2.4,0.5,2.4,3
		V44z M77.2,47c0,2.5-0.2,3-2.4,3h-2V35.6h2c2.1,0,2.4,0.5,2.4,3V47z M86.6,47v-8.7c0-6.9-3.5-9.9-11.6-9.9H60.5v7.2h3.4v30.3h-3.4
		v7.2h16v-7.2h-3.6v-8.7h1.9C82.9,57.2,86.6,54,86.6,47 M59,73.1v-2.3h-4.5l-5.4-20.4l5.1-19.7h4.5v-2.3h-6.4l-5.4,21.1h-0.3
		l-5.4-21.1h-6.6v2.3h4.5l5.1,19.7l-5.4,20.4h-4.5v2.3h6.4l5.6-21.9h0.3l5.6,21.9H59z M32.9,73.1V56.2h-7.7v9.9h-4.3V52.9h8.6v-7.2
		h-8.6V35.4h4.3v6.9h7.7V28.4H8.5v7.2h3.4v30.3H8.5v7.2H32.9z"/>
	<rect x="12" y="17.7" width="18" height="6.5"/>
	<rect x="60.3" y="20" width="130.9" height="1.8"/>
	<rect x="8.7" y="80.4" width="182.5" height="1.8"/>
</g>
</svg>
