<?xml version="1.0" encoding="utf-8"?>
<!-- Generator: Adobe Illustrator 23.0.2, SVG Export Plug-In . SVG Version: 6.00 Build 0)  -->
<svg version="1.1" id="Layer_1" xmlns="http://www.w3.org/2000/svg" xmlns:xlink="http://www.w3.org/1999/xlink" x="0px" y="0px"
	 viewBox="0 0 566.9 283.5" style="enable-background:new 0 0 566.9 283.5;" xml:space="preserve">
<g>
	<polygon points="36,162.4 36,21.9 62,21.9 87.3,114.7 87.3,21.9 105.8,21.9 105.8,162.4 80.2,162.4 54.5,66.3 54.5,162.4 	"/>
	<path d="M143,127.3c0,8.5,0.6,19.3,12,19.3c11.4,0,11.4-11.8,11.4-19.3V56.1c0-7.9-1.2-17.6-11.4-17.6c-9.5,0-12,8.7-12,17.6V127.3
		z M155,164.3c-31.6,0-31.6-28.2-31.6-37V56.1c0-6.9,0-35.9,31.6-35.9c31.1,0,31.1,28.9,31.1,35.9v71.2
		C186.1,135,186.1,164.3,155,164.3"/>
	<path d="M222.9,40.3v44h10.6c7.1,0,13.5-4,13.5-15.4v-12c0-13.1-6.4-16.6-13.5-16.6H222.9z M203.2,162.4V21.9h30.3
		c26.6,0,33.6,15.8,33.6,34.9v12c0,17.4-6.8,26.2-14.9,28.4l20.1,65.2h-20.8l-17-60.6h-11.6v60.6H203.2z"/>
	<polygon points="286.2,162.4 286.2,21.9 317,21.9 333.6,108.9 350.4,21.9 380.9,21.9 380.9,162.4 362,162.4 362,48 341.3,162.4 
		325.1,162.4 305.1,48 305.1,162.4 	"/>
	<path d="M429.9,48.6l-9.5,63.3h18.9L429.9,48.6z M392.6,162.4l23.9-140.4h26.6l25.1,140.4h-20.1l-5.2-31.8h-26.4l-5,31.8H392.6z"/>
	<polygon points="477.9,162.4 477.9,21.9 498,21.9 498,144.4 532.1,144.4 532.1,162.4 	"/>
	<rect x="27.4" y="170.9" width="512" height="10.6"/>
	<rect x="27.4" y="1.7" width="512" height="10.6"/>
</g>
<g>
	<path d="M187.4,247.7c0,2.4-0.1,3.6-1,5.3c-1,2-3.1,3.7-6.5,3.7c-3.4,0-5.5-1.7-6.5-3.7c-0.8-1.7-1-3-1-5.3v-15h3v15.5
		c0,3.7,1.6,6.1,4.5,6.1c2.8,0,4.5-2.4,4.5-6.1v-15.5h3V247.7z"/>
	<polygon points="192.6,232.7 196.4,232.7 205.3,252.3 205.4,252.3 205.4,232.7 208.3,232.7 208.3,256.5 204.6,256.5 195.6,237 
		195.5,237 195.5,256.5 192.6,256.5 	"/>
	<rect x="213.5" y="232.7" width="3" height="23.8"/>
	<polygon points="219.4,232.7 222.7,232.7 228.2,252.1 228.3,252.1 234.1,232.7 237.1,232.7 229.7,256.5 226.7,256.5 	"/>
	<polygon points="240.1,232.7 251.1,232.7 251.1,235.3 243,235.3 243,242.9 250.8,242.9 250.8,245.4 243,245.4 243,253.9 
		251.6,253.9 251.6,256.5 240.1,256.5 	"/>
	<path d="M255.8,256.5h3v-10.8h1.4c2.3,0,3.1,0.7,3.8,2.7l2.7,8h3.2l-3.4-9.5c-0.5-1.4-1.2-2-2.6-2.3v-0.1c3.5-0.7,4.7-3.2,4.7-5.7
		c0-1.7-0.6-3.4-1.8-4.5c-1.1-1-2.5-1.6-5-1.6h-6.1V256.5z M258.8,235.2h2.4c2.6,0,4.3,1.3,4.3,3.9c0,2.1-1.2,4.2-4.4,4.2h-2.3
		V235.2z"/>
	<path d="M283.3,236.2c-1.1-0.7-2.6-1.1-4.1-1.1c-2.3,0-3.7,1.5-3.7,3.5c0,1.5,0.6,2.5,4,4.5c3.7,2.1,4.9,4.2,4.9,6.9
		c0,3.8-2.3,6.8-6.9,6.8c-1.9,0-3.7-0.4-5-1v-3.1c1.3,0.8,3.1,1.5,4.5,1.5c2.7,0,4.2-1.8,4.2-3.8c0-1.8-0.5-2.9-3.7-4.8
		c-4.3-2.6-5.2-4-5.2-7.1c0-3.9,3-6,6.6-6c1.6,0,3.2,0.3,4.3,0.8V236.2z"/>
	<rect x="288.6" y="232.7" width="3" height="23.8"/>
	<path d="M296.5,256.5h3.7c8.9,0,12.2-5.4,12.2-12.3c0-5.4-2.3-8.4-4.4-9.8c-1.4-1-3.2-1.7-6.3-1.7h-5.2V256.5z M299.5,235.3h1.8
		c5.9,0,8,3.9,8,8.9c0,6.1-2.7,9.7-8,9.7h-1.8V235.3z"/>
	<path d="M321.5,232.7l-8,23.8h3l1.9-6.2h9.1l1.9,6.2h3.1l-7.8-23.8H321.5z M319.2,247.7l3.8-11.9h0.1l3.6,11.9H319.2z"/>
	<path d="M335.1,256.5h3.7c8.9,0,12.2-5.4,12.2-12.3c0-5.4-2.3-8.4-4.4-9.8c-1.4-1-3.2-1.7-6.3-1.7h-5.2V256.5z M338.1,235.3h1.8
		c5.9,0,8,3.9,8,8.9c0,6.1-2.7,9.7-8,9.7h-1.8V235.3z"/>
	<polygon points="355,232.7 366,232.7 366,235.3 358,235.3 358,242.9 365.7,242.9 365.7,245.4 358,245.4 358,253.9 366.5,253.9 
		366.5,256.5 355,256.5 	"/>
	<path d="M378.6,256.5h3.7c8.9,0,12.2-5.4,12.2-12.3c0-5.4-2.3-8.4-4.4-9.8c-1.4-1-3.2-1.7-6.3-1.7h-5.2V256.5z M381.6,235.3h1.8
		c5.9,0,8,3.9,8,8.9c0,6.1-2.7,9.7-8,9.7h-1.8V235.3z"/>
	<path d="M403.5,232.7l-8,23.8h3l1.9-6.2h9.1l1.9,6.2h3.1l-7.8-23.8H403.5z M401.2,247.7l3.7-11.9h0.1l3.7,11.9H401.2z"/>
	<path d="M439.6,256c-1.4,0.4-2.9,0.7-4.3,0.7c-7.5,0-10.7-5.7-10.7-12.2c0-7.4,4.3-12.1,10.5-12.1c1.7,0,3.4,0.3,4.5,0.8v2.9
		c-1.3-0.8-2.8-1.2-4.5-1.2c-3.9,0-7.4,3.1-7.4,8.9c0,6.2,2.5,10.2,7.6,10.2c1.5,0,3-0.4,4.3-1.1V256z"/>
	<path d="M442.9,244.8c0,7.4,3.4,11.9,8.6,11.9c5.6,0,8.9-4.2,8.9-12.4c0-7.4-3.4-11.9-8.6-11.9
		C446.2,232.5,442.9,236.6,442.9,244.8 M446,244.8c0-7.3,2.7-9.9,5.8-9.9c4,0,5.5,4.6,5.5,9.4c0,7.3-2.7,9.9-5.8,9.9
		C447.5,254.3,446,249.6,446,244.8"/>
	<path d="M464.7,256.5h3v-10.8h1.4c2.3,0,3.1,0.7,3.8,2.7l2.7,8h3.2l-3.3-9.5c-0.5-1.4-1.2-2-2.6-2.3v-0.1c3.5-0.7,4.7-3.2,4.7-5.7
		c0-1.7-0.5-3.4-1.8-4.5c-1.1-1-2.5-1.6-5-1.6h-6.1V256.5z M467.7,235.2h2.4c2.6,0,4.4,1.3,4.4,3.9c0,2.1-1.2,4.2-4.4,4.2h-2.3
		V235.2z"/>
	<path d="M497.4,247.7c0,2.4-0.1,3.6-0.9,5.3c-1,2-3.1,3.7-6.5,3.7c-3.4,0-5.5-1.7-6.5-3.7c-0.8-1.7-0.9-3-0.9-5.3v-15h3v15.5
		c0,3.7,1.6,6.1,4.5,6.1c2.8,0,4.5-2.4,4.5-6.1v-15.5h3V247.7z"/>
	<path d="M502.6,232.7h3.7l9,19.6h0.1v-19.6h2.9v23.8h-3.7l-9-19.5h-0.1v19.5h-2.9V232.7z M515.4,227.1c-0.4,2.2-1.2,3.6-2.9,3.6
		c-0.5,0-1.1-0.1-2.3-0.7c-1.1-0.5-1.3-0.6-1.6-0.6c-0.6,0-1.2,0.4-1.3,1.5h-1.8c0.2-2.3,1.3-3.7,3.2-3.7c0.6,0,1.2,0.2,2.6,0.9
		c0.7,0.3,0.9,0.4,1.2,0.4c0.6,0,1-0.5,1.1-1.5H515.4z"/>
	<path d="M529.1,232.7l-8,23.8h3l1.9-6.2h9.1l1.9,6.2h3.1l-7.8-23.8H529.1z M526.8,247.7l3.7-11.9h0.1l3.6,11.9H526.8z"/>
	<path d="M93,244.2l47.5-21.4c-12-6.1-28.8-9.8-47.5-9.8c-18.7,0-35.5,3.8-47.5,9.8L93,244.2z"/>
	<path d="M157.7,239.3c-1.3-3.8-4.1-7.4-8-10.6l-53.1,15.2L157.7,239.3z"/>
	<path d="M150,260.2c3.9-3.3,6.6-6.9,7.8-10.8l-61.2-4.3L150,260.2z"/>
	<path d="M93,245l-47.8,21.3c12,6.2,29,10,47.8,10c18.9,0,35.8-3.8,47.8-10L93,245z"/>
	<path d="M28.1,249.5c1.2,3.9,3.9,7.5,7.8,10.8l53.5-15L28.1,249.5z"/>
	<path d="M89.3,243.9l-53.1-15.2c-3.9,3.2-6.6,6.8-8,10.6L89.3,243.9z"/>
</g>
</svg>
